<svg width="19" height="19" viewBox="0 0 19 19" fill="none" xmlns="http://www.w3.org/2000/svg">
<path d="M16.0625 1.51141H2.9375C2.5894 1.51141 2.25556 1.64969 2.00942 1.89584C1.76328 2.14198 1.625 2.47582 1.625 2.82391V15.9489C1.625 16.297 1.76328 16.6308 2.00942 16.877C2.25556 17.1231 2.5894 17.2614 2.9375 17.2614H16.0625C16.4106 17.2614 16.7444 17.1231 16.9906 16.877C17.2367 16.6308 17.375 16.297 17.375 15.9489V2.82391C17.375 2.47582 17.2367 2.14198 16.9906 1.89584C16.7444 1.64969 16.4106 1.51141 16.0625 1.51141Z" stroke="#F8F8F8" stroke-width="1.5" stroke-linecap="round" stroke-linejoin="round"/>
<path d="M1.625 5.44891H17.375M13.4375 1.51141L10.8125 5.44891M8.1875 1.51141L5.5625 5.44891M7.96875 11.1364V8.48429L10.2656 9.80991L12.5625 11.1364L10.2656 12.4625L7.96875 13.7885V11.1364Z" stroke="#F8F8F8" stroke-width="1.5" stroke-linecap="round" stroke-linejoin="round"/>
</svg>
