<svg width="17" height="18" viewBox="0 0 17 18" fill="none" xmlns="http://www.w3.org/2000/svg">
<path id="Union" fill-rule="evenodd" clip-rule="evenodd" d="M2.6 7.74999C2.6 4.90573 4.90573 2.6 7.74999 2.6C10.5943 2.6 12.9 4.90573 12.9 7.74999C12.9 10.5943 10.5943 12.9 7.74999 12.9C4.90573 12.9 2.6 10.5943 2.6 7.74999ZM7.74999 0.9C3.96685 0.9 0.9 3.96685 0.9 7.74999C0.9 11.5331 3.96685 14.6 7.74999 14.6C9.07773 14.6 10.3172 14.2222 11.3669 13.5683C11.3733 13.5751 11.3798 13.5819 11.3865 13.5885L14.649 16.851C14.9809 17.183 15.5191 17.183 15.851 16.851C16.183 16.5191 16.183 15.9809 15.851 15.6489L12.6937 12.4916C13.8744 11.2609 14.6 9.59016 14.6 7.74999C14.6 3.96685 11.5331 0.9 7.74999 0.9Z" fill="#717171"/>
</svg>
